<?xml version="1.0" encoding="UTF-8"?>
<svg id="_图层_2" data-name="图层 2" xmlns="http://www.w3.org/2000/svg" viewBox="0 0 96 96">
  <defs>
    <style>
      .cls-1 {
        fill: #fff;
      }

      .cls-2 {
        fill: #24292f;
      }
    </style>
  </defs>
  <g id="_图层_1-2" data-name="图层 1">
    <g>
      <circle class="cls-2" cx="48" cy="48" r="48"/>
      <g>
        <path class="cls-1" d="M80.85,21.04c.25-.25-1.1-1.78-1.34-2.05-4.69-5.36-14.32-9.94-21.2-11.47-10.26-2.28-23.82-1.06-32.36,5.57-4.02,3.12-6.85,6.96-2.94,11.58,1.5,1.77,3.84,3.28,6.08,3.79-.28-2.25-.13-4.13,1.07-6.11,4.66-7.6,18.63-3.82,24.54.45,11.94,8.63,10.4,23.67-1.8,31.13-4.87,2.98-10.74,3.95-16.4,3.72,2.29-7.15,1.66-15.05-3.87-20.51-.14,0-.62,2.06-.75,2.41-1.77,4.72-5.45,5.88-9.32,8.2-1.84,1.1-1.68,1.15.1,2.21,3.55,2.09,8.05,2.91,12.1,2.34-.69,5.17-3.54,9.8-5.32,14.64-1.62,4.37-2.92,9.27-1.5,13.89.23.76.85,2.66,1.83,2.37.75-.23,3.43-5.25,4.38-6.04l2.2-2.29c-1.76,4.11-1.87,9.29.45,13.2.39.65.89,1.71,1.81,1.45.65-.19,3.15-4.37,3.77-5.23,3.1-4.28,6.7-8.53,10.86-11.79-.75,1.9-1.67,3.74-2.25,5.72-.88,3.03-1.52,7.46-.04,10.38.4.8.69.96,1.51.56,1.58-.78,4.52-3.89,5.75-5.29,5.56-6.31,9.48-14.14,10.49-22.57l.45,1.84c.87,6.17.5,12.44-.76,18.52,3.18-2.06,5.5-5.75,6.97-9.2,3.54-8.31,3.19-16.99.61-25.51l.87,1.41c2.29,4.7,3.24,9.94,3.07,15.16.24,0,.43.08.64-.1.43-.37,1.55-2.87,1.8-3.53,2.64-6.96,1.59-14.9-1.52-21.52l-2.82-5.15c2.74,2.43,4.58,5.67,6.13,8.94.19.4.98,3.11,1.6,2.58,2.41-9.47-3.14-18.75-10.34-24.46-1.19-.94-2.48-1.73-3.72-2.59-.19-.13-.39,0-.29-.41l9.47,3.79ZM37.41,22.03c-5.75.82-2.95,10.19,2.41,7.3,3.71-2,1.93-7.92-2.41-7.3ZM22.62,59.86c.2-.2-1.17-1.37-1.34-1.58-4.63-5.4-4.32-10.66,1.93-14.33,4.34-2.55,8.59-4.24,7.61-10.52-.15-.97-1.82-1.07-2.67-1.43-2.78-1.21-5.81-3.14-7.82-5.44-.32-.37-1.78-2.58-2.04-2.52-5.95,5.14-9.38,12.45-8.45,20.43.83,7.12,5.79,13.48,12.78,15.39Z"/>
        <path class="cls-2" d="M36.46,23.12c.92-.19,1.68.87.99,1.63-1.25,1.37-2.61-1.29-.99-1.63Z"/>
        <path class="cls-1" d="M17.36,28.49c.81-.24,1.2.17.96.96-.09.29-.95.97-1.23,1.3-1.21,1.47-2.28,3.3-2.97,5.08-.39,1.01-.59,2.53-.95,3.31-.29.62-1.07.74-1.27.09-.41-1.38,1.45-5.57,2.21-6.88.43-.75,2.54-3.65,3.24-3.87Z"/>
        <path class="cls-2" d="M17.36,28.49c.81-.24,1.2.17.96.96-.09.29-.95.97-1.23,1.3-1.21,1.47-2.28,3.3-2.97,5.08-.39,1.01-.59,2.53-.95,3.31-.29.62-1.07.74-1.27.09-.41-1.38,1.45-5.57,2.21-6.88.43-.75,2.54-3.65,3.24-3.87Z"/>
      </g>
    </g>
  </g>
</svg>