<svg xmlns="http://www.w3.org/2000/svg" width="556" height="80" data-name="Layer 1"><path d="M312.4 1204.6v.1l-27.2-15.8v-10.4h12l15.2 26.1Zm-13 24.3 5.4-5.5-19.6-24.3v-3.1l29.6 17.5 6.2-6.2-17-28.7h3.6l23.3 18.7 5.7-5.7-17-13h38.5l-10.4 80H319c-22.7 0-33.8-6.7-33.8-24.6v-23.4l14.1 18.3Z" style="fill:#e9272b;fill-rule:evenodd" transform="translate(-285.2 -1178.5)"/><path d="m428.9 1239-5-46.5h-.2l-12 46.5h-10.6l-12-46.5h-.1l-5 46.5h-9.4l7.5-58.5h11.6l12.8 48.9h.2l12.8-48.9h11.6l7.5 58.5Zm54.2-7.2v7.2h-39.2v-58.5h39.2v7.2h-29.4v16.7h27.6v6.9h-27.6v20.5Zm22.1 7.2H491v-58.5h14.2q17.2 0 26 7.3t8.7 21.2q0 30-34.7 30Zm1-51.3h-5.4v44h5.3q12.5 0 18.5-5.4t6-17.4q0-21.2-24.5-21.2ZM547 1239v-58.5h10.7v58.5Zm61.5 0-5.3-15.5h-24L574 1239h-10.1l22.2-58.5h10.7l22.2 58.5Zm-17.2-50.5h-.2l-9.5 28h19.2l-9.5-28Z" style="fill:#002133" transform="translate(-285.2 -1178.5)"/><path d="m660.8 1239-21-35.9h-.1v35.9h-14.5v-58.5h14.5l21 36h.1v-36h14.5v58.5Zm70.8-7.2q-8.1 8-22.2 8t-22.2-8q-8.2-8-8.2-22t8.2-22q8.2-8 22.2-8t22.2 8q8.2 8 8.2 22t-8.2 22Zm-22.2-40.9q-15 0-15 18.9t15 18.8q14.9 0 14.9-18.8t-14.9-18.9Zm63.6 48h-16l-21-58.4h16.1l12.8 45.4h.1l13.3-45.4H794l-21 58.5Zm52.2 0-3.6-12.6h-19.3L799 1239H783l21.1-58.5h16l21 58.5Zm-13-46.6h-.3l-6.6 23.7h13.4l-6.6-23.7Z" style="fill:#e9272b" transform="translate(-285.2 -1178.5)"/></svg>
