<svg xmlns="http://www.w3.org/2000/svg" fill="none" viewBox="0 0 145 34"><path fill="#35CA70" d="M14.4 33.9 29 25.6V0L14.4 8.3 0 .1v25.6l4.5 2.5V7.8l10 5.6 10-5.7v5.2l-10 5.7v5.1l10-5.7v5l-10 5.8v5Z"/><path fill="#3A3C4B" d="M39.9 7.8h2.7l4.4 6.7 4.4-6.7h2.8V22h-2.6V11.8L47 18.6l-4.6-6.7V22H40V7.8ZM57 16.7c0-3.1 2.2-5.6 5.4-5.6 3.4 0 5.2 2.7 5.2 5.8v.7h-8a3 3 0 0 0 3 2.7 4 4 0 0 0 3-1.3l1.5 1.3a5.5 5.5 0 0 1-4.5 2 5.5 5.5 0 0 1-5.6-5.6Zm8.1-.8c-.2-1.6-1.1-2.8-2.8-2.8-1.5 0-2.6 1.1-2.8 2.8h5.6ZM70.3 7.1h2.5v15h-2.5V7ZM78.6 20.4v1.7H76V7h2.5v6c.8-1.1 2-2 3.7-2 2.6 0 5 2 5 5.6 0 3.6-2.4 5.6-5 5.6a4.5 4.5 0 0 1-3.7-1.9Zm6.2-3.7c0-2.1-1.4-3.5-3-3.5-1.8 0-3.3 1.4-3.3 3.5s1.5 3.5 3.2 3.5c1.7 0 3.1-1.4 3.1-3.5ZM90.1 11.3h2.5V22h-2.5V11.3ZM95.3 16.7a5.5 5.5 0 0 1 3.5-5.2c.7-.3 1.4-.4 2.2-.4a5.5 5.5 0 0 1 4.3 1.8l-1.5 1.7c-.8-.8-1.6-1.4-2.9-1.4-1.8 0-3.1 1.6-3.1 3.5 0 2 1.3 3.5 3.2 3.5 1.2 0 2.1-.6 2.9-1.4l1.5 1.5a5.5 5.5 0 0 1-4.5 2 5.7 5.7 0 0 1-5.2-3.4c-.3-.7-.4-1.5-.4-2.2ZM106.8 16.7a5.7 5.7 0 0 1 3.5-5.4 6 6 0 0 1 6.4 1.2 5.7 5.7 0 0 1-4.1 9.8 5.8 5.8 0 0 1-5.3-3.4c-.3-.7-.5-1.4-.5-2.2Zm9.2 0c0-1.9-1.4-3.5-3.4-3.5s-3.3 1.6-3.3 3.5c0 2 1.4 3.5 3.4 3.5s3.3-1.6 3.3-3.5ZM121 11.3h2.5v1.6c.7-1 1.7-1.9 3.4-1.9a3.5 3.5 0 0 1 3.2 2 4.4 4.4 0 0 1 3.7-2c2.4 0 3.9 1.5 3.9 4.2V22h-2.5v-6.2c0-1.7-.8-2.6-2.2-2.6-1.5 0-2.4 1-2.4 2.7v6h-2.5v-6c0-1.8-.8-2.7-2.2-2.7-1.4 0-2.4 1-2.4 2.7v6H121V11.4Z"/><path fill="#35CA70" d="M91.3 9.6c.7 0 1.3-.5 1.3-1.2S92 7 91.3 7c-.6 0-1.2.6-1.2 1.3 0 .7.6 1.2 1.3 1.2Z"/></svg>
